<?xml version="1.0" encoding="UTF-8" standalone="no"?>
<!-- Created with Inkscape (http://www.inkscape.org/) -->
<svg
   xmlns:svg="http://www.w3.org/2000/svg"
   xmlns="http://www.w3.org/2000/svg"
   version="1.0"
   width="744.12634"
   height="460.474"
   id="svg2849">
  <defs
     id="defs2851" />
  <g
     transform="translate(34.920328,-233.55375)"
     id="layer1">
    <path
       d="M 400.80776,693.50802 C 398.01556,692.62796 395.22736,690.54781 393.89526,688.38765 C 392.23914,685.66745 392.09513,682.02718 393.28721,672.90651 C 394.58731,662.98579 394.5393,657.14536 393.1072,651.58495 C 391.49908,645.28049 389.0429,639.48006 383.68251,629.30332 C 377.01002,616.63439 376.674,615.93434 373.78578,608.5338 C 371.2456,602.03332 368.76942,596.84094 367.30531,594.9408 L 366.56126,593.98073 L 365.04114,596.74093 C 364.20108,598.25705 362.13293,601.92931 360.43681,604.90153 C 354.9164,614.58624 351.66416,621.61876 350.06805,627.32317 C 348.35992,633.44362 348.0039,637.06389 347.64787,651.90498 C 347.21584,669.90629 346.53979,674.82665 343.58357,681.34713 C 342.24747,684.30735 341.44742,684.86739 337.47913,685.70745 C 332.51476,686.74753 326.30631,684.86739 324.24216,681.74716 L 323.27408,680.30706 L 325.03021,673.50656 C 325.99428,669.74628 328.61848,660.14558 330.85864,652.10499 C 341.08739,615.4223 344.67165,598.22104 346.7118,575.95541 C 347.41185,568.30285 347.72788,545.23716 347.13583,544.64512 C 346.53979,544.04507 343.84359,544.4491 340.65136,545.61319 C 334.84693,547.73335 335.707,548.28539 332.85079,540.59282 C 323.5221,515.46698 315.56552,491.74124 309.06904,469.70363 C 307.61294,464.76327 306.20483,460.57496 305.93682,460.39495 C 305.6688,460.21894 305.00075,460.16693 304.45271,460.28294 C 303.90067,460.39895 301.78451,460.60696 299.74836,460.75097 C 294.28796,461.131 294.44797,461.38302 294.45997,452.32636 C 294.46397,448.34607 294.73199,441.21754 295.05202,436.4892 C 295.64006,427.80856 295.78807,423.41624 295.48805,423.72026 C 295.39604,423.81227 294.864,426.04843 294.30796,428.68863 C 289.93164,449.46215 289.91964,470.90372 294.27996,483.35263 C 294.848,484.96875 295.40004,486.57287 295.50805,486.91689 C 295.63206,487.31692 295.32004,487.71695 294.62799,488.02897 C 293.19588,488.68102 292.0318,487.92096 290.39568,485.26477 C 289.3516,483.56865 288.23552,482.49257 287.51547,482.49257 C 286.97543,482.49257 286.32738,485.7128 285.85134,490.78517 C 285.33131,496.36158 284.37124,500.49388 283.59918,500.49388 C 282.89913,500.49388 281.06699,499.3898 280.17093,498.42573 C 278.02277,496.12957 277.85076,495.06549 277.85076,484.2927 C 277.85076,478.7923 277.70675,474.07195 277.53473,473.80393 C 277.20271,473.29189 275.29057,472.68785 272.75438,472.29182 C 271.93032,472.15981 271.09426,471.74778 270.89025,471.36775 C 270.46622,470.57969 271.07026,459.6949 272.84639,436.08917 C 273.50244,427.39653 274.40251,415.15563 274.84654,408.88718 C 278.09478,363.16783 280.79897,341.05821 284.52725,329.78538 C 285.97135,325.42106 287.36746,323.10489 289.03558,322.31683 C 289.70363,322.00081 293.21988,321.18075 296.85215,320.4927 C 308.66101,318.25254 313.30535,316.72843 317.9697,313.55219 C 319.83383,312.2801 320.12185,312.19209 320.36987,312.79214 C 320.52588,313.17216 320.64189,324.10097 320.62989,337.08192 L 320.60589,360.68364 L 319.31379,371.08441 C 318.60574,376.80483 317.85769,382.56525 317.65367,383.88534 C 316.94962,388.47368 316.05356,398.70643 316.05356,402.22669 C 316.05356,404.97089 316.16956,405.72694 316.57359,405.57093 C 316.85762,405.46292 325.23023,403.16676 335.17496,400.47056 L 353.25628,395.5702 L 353.25628,393.13002 C 353.25228,389.07372 352.48822,374.36065 351.86818,366.48407 C 350.91211,354.35118 350.48808,345.0305 350.25206,331.08148 C 350.12805,323.82094 349.92004,317.09645 349.78803,316.14438 L 349.55201,314.40826 L 351.47215,315.87236 C 354.55638,318.22453 357.68061,319.60064 367.45732,322.89688 C 372.51769,324.605 377.59006,326.44114 378.73415,326.97718 C 380.54228,327.82524 381.95438,329.28134 389.70295,338.31401 C 404.56404,355.64328 409.16038,360.82365 415.27282,367.13212 C 421.70129,373.7686 424.5695,377.67689 425.71359,381.35316 C 427.72174,387.80563 425.79359,391.58991 415.53284,401.31862 C 413.14867,403.57879 408.92036,407.94711 406.13215,411.03133 C 401.08778,416.59974 396.57545,420.60003 393.63124,422.10014 C 391.91111,422.97621 388.53086,423.15622 387.13076,422.44017 C 386.65073,422.19615 385.30263,421.07207 384.13054,419.93998 C 382.07039,417.95184 382.01439,417.92384 382.28641,419.08792 C 382.89845,421.68411 384.67058,425.50439 387.35078,429.99272 C 391.39907,436.76922 392.29914,438.96138 392.83918,443.3337 C 393.91126,452.03834 395.47137,463.04314 398.23958,481.49249 C 401.83584,505.45025 403.968,521.61943 403.56797,521.88345 C 403.50796,521.92345 402.21587,522.17547 400.69576,522.44749 C 397.33551,523.04354 394.91133,524.05561 388.65887,527.47586 C 384.63458,529.67602 382.2544,530.6721 379.01017,531.51216 C 378.73415,531.58416 378.99017,532.51223 379.68222,533.96034 C 381.14632,537.02056 381.94238,541.29287 382.46242,548.89743 C 383.02246,557.04203 383.82652,560.24226 387.43478,568.62688 C 392.19913,579.71569 393.40322,584.83206 394.86733,600.26119 C 396.83147,620.97471 397.59153,626.21109 399.40766,631.54748 C 400.56775,634.96773 401.44781,636.72786 404.73205,642.20826 C 406.15216,644.57244 408.00429,647.98469 408.85235,649.82482 C 411.72056,655.94527 413.29268,665.74599 414.04873,682.06718 C 414.51277,692.10792 414.72478,691.22786 411.46054,692.98798 C 409.38439,694.10807 403.57997,694.38809 400.80776,693.50802 L 400.80776,693.50802 z"
       id="path2826"
       style="fill:#442178" />
    <path
       d="M 394.11527,394.47812 C 396.39544,392.60598 399.20365,390.47383 400.35973,389.73777 C 402.93192,388.10165 404.46003,386.34552 404.46003,385.02943 C 404.46003,380.40109 400.99578,376.78082 391.25906,371.22842 C 382.72644,366.36406 381.64636,365.88803 380.19425,366.36806 C 379.32219,366.65608 378.56613,367.61615 376.94602,370.51236 C 375.78593,372.58852 374.46983,375.0927 374.0218,376.08477 C 373.57377,377.07285 372.5937,379.145 371.84164,380.68511 C 370.25353,383.94535 370.03751,385.9695 371.01758,388.52568 C 371.78964,390.54583 373.66978,392.19795 377.85808,394.52612 C 379.17818,395.25818 381.67836,396.8983 383.41849,398.16639 L 386.57872,400.47056 L 388.27485,399.17846 C 389.20691,398.46641 391.83511,396.35426 394.11527,394.47812 L 394.11527,394.47812 z"
       id="path2824"
       style="fill:#442178" />
    <path
       d="M 556.46717,693.10799 C 551.34679,692.02791 544.10626,688.98769 540.98603,686.66752 C 539.58593,685.62745 538.78587,683.54729 538.06582,679.22698 L 537.58578,676.58678 L 533.22546,674.66664 C 530.66528,673.58656 528.14509,672.18646 527.14502,671.3064 L 525.46489,669.78628 L 525.42489,660.06557 C 525.38489,654.70518 525.06487,646.43257 524.70484,641.70423 C 523.02472,619.28659 522.98471,613.57417 524.30481,605.23756 C 525.10487,600.3452 525.22488,590.8445 524.54483,585.3001 C 523.38474,576.08742 523.26473,572.45516 523.86478,567.09876 C 524.94486,557.39005 524.74484,555.94195 521.4646,551.69764 C 519.10443,548.64541 518.54439,547.19731 518.02435,543.22501 C 517.62432,539.83277 516.74426,537.82462 514.26407,534.36837 C 512.46394,531.85218 512.14392,530.56409 511.62388,524.10361 C 510.78382,512.9308 508.22363,504.8102 499.86302,486.66487 C 497.70286,482.06053 495.82272,477.87623 495.62271,477.36819 C 495.10267,476.02809 494.70264,476.52013 493.74257,479.57635 C 491.86243,485.6128 491.62242,490.47315 492.22246,507.09437 C 492.62249,518.21918 492.38247,521.62743 490.0623,538.29665 C 487.02208,560.04225 487.10208,558.93417 487.06208,589.5004 C 487.06208,621.61076 487.42211,627.38318 490.30232,640.0161 C 491.70242,646.11255 491.70242,646.31257 490.46233,646.26456 C 489.90229,646.24456 489.14223,646.08855 488.78221,645.92054 C 488.18216,645.66452 488.06215,645.83253 488.06215,646.94461 C 488.10216,649.06477 488.7022,651.30493 491.4624,659.74555 C 494.34261,668.42619 495.14267,672.34647 494.70264,675.82673 C 494.34261,678.46692 494.02259,678.78694 490.1023,680.10704 C 484.94193,681.82717 479.30151,681.06711 475.22121,678.1469 C 471.90097,675.78672 470.18085,673.02652 469.66081,669.30625 C 469.46079,667.66613 468.86075,663.90585 468.42072,660.94564 C 467.50065,655.18522 467.58065,651.90498 468.62073,650.30486 C 469.46079,649.02476 469.46079,649.02476 467.90068,648.74474 C 466.30056,648.42472 465.70052,647.82468 464.26041,644.95647 C 462.62029,641.67223 462.10025,638.23597 461.82023,629.70335 C 461.70022,625.41103 461.18019,617.85048 460.66015,612.90212 C 458.74001,595.16082 457.45991,575.25536 456.25983,544.89714 C 454.81972,507.76642 454.93973,509.81057 452.46355,489.29306 C 450.36339,471.9598 450.07137,468.18752 450.06737,458.23079 C 450.06337,447.59001 450.53541,442.97367 452.33554,436.12917 C 453.1396,433.13695 453.85965,430.28074 453.97966,429.78471 C 454.21968,428.64062 452.81957,426.9285 445.32302,419.14793 C 438.34651,411.8994 435.33429,407.93511 432.82611,402.68672 C 430.53394,397.88237 429.77789,395.09016 429.22585,389.38975 C 428.73381,384.29337 428.91382,380.38509 430.47794,362.28376 C 431.99005,344.82248 432.31807,341.73426 433.30214,335.74582 C 435.66632,321.41677 439.25058,317.20046 457.05988,307.77977 C 460.82016,305.79962 465.38049,303.22744 467.26063,302.06335 C 471.26092,299.57917 483.1818,292.87868 483.62183,292.87868 C 483.78184,292.87868 484.6219,294.63481 485.46196,296.77896 C 486.30203,298.92312 487.70213,302.07935 488.54219,303.79148 C 489.38225,305.5036 490.78235,308.83585 491.62242,311.19202 C 493.14253,315.42433 494.78265,319.0926 495.06267,318.81258 C 495.34269,318.54856 497.66286,311.00001 497.66286,310.40396 C 497.66286,310.07994 497.26283,309.5919 496.74279,309.31988 C 496.22275,309.04786 495.62271,308.31981 495.38269,307.70376 C 494.98266,306.61968 495.06267,306.50368 497.70286,304.52753 C 499.22297,303.39945 500.62307,302.47938 500.78309,302.47938 C 500.9831,302.47938 501.98317,303.21544 503.02325,304.1115 C 504.62337,305.5236 504.86339,305.95564 504.86339,307.28373 C 504.86339,308.57583 504.70337,308.84385 503.98332,308.95186 C 502.82324,309.11187 502.86324,309.73591 504.22334,315.55634 C 504.98339,318.80058 505.26341,321.22075 505.30342,324.35698 L 505.34342,328.6813 L 505.94346,326.08111 C 508.26363,315.71635 510.38379,307.78377 512.26393,302.35137 C 513.46402,298.87112 514.46409,295.67088 514.46409,295.23885 C 514.46409,293.1587 516.90427,294.22278 525.86492,300.19521 C 532.46541,304.58354 533.62549,305.16758 540.66601,307.67976 C 550.1467,311.04801 554.34701,313.84421 556.22715,318.05252 C 557.46724,320.81272 559.02735,327.46921 559.6274,332.48158 C 561.34752,346.63462 561.22751,385.92549 559.46738,394.65813 C 558.50731,399.33048 556.26715,403.13875 547.86654,414.28357 C 538.38584,426.87649 536.06567,430.18874 536.06567,431.16481 C 536.06567,432.21288 536.94574,433.41697 540.506,437.13324 C 544.14626,440.98953 544.50629,441.9856 543.10619,444.51378 C 540.546,449.11812 540.70601,459.7469 543.46621,473.93594 C 546.0264,487.0409 549.86668,517.94716 552.46687,546.29724 C 553.14692,553.55777 554.06699,561.83838 554.54702,564.69859 C 555.5871,571.17906 555.42709,577.1395 553.70696,597.701 C 551.14678,627.88322 551.14678,637.65193 553.50695,655.94527 L 553.78697,657.98542 L 552.02684,658.58546 C 551.10677,658.90549 550.26671,659.34552 550.18671,659.58554 C 549.98669,660.22558 554.38701,666.58605 557.86727,670.70635 C 566.02787,680.34706 568.54805,683.90732 570.02816,687.86761 C 571.42826,691.58788 571.38826,691.7879 568.86807,692.62796 C 565.94786,693.62803 559.86741,693.86805 556.46717,693.10799 L 556.46717,693.10799 z"
       id="path2822"
       style="fill:#000000" />
    <path
       d="M 508.86368,417.57981 C 508.86368,417.51981 508.42365,415.31165 507.86361,412.67945 C 507.30356,410.04326 506.86353,407.23505 506.86353,406.435 C 506.86353,405.63894 506.74352,404.40685 506.62351,403.7028 L 506.34349,402.4187 L 503.6633,405.1069 L 500.9431,407.7951 L 499.74301,406.439 C 499.10296,405.69494 498.06289,404.49485 497.46284,403.7708 C 496.8628,403.04275 496.30276,402.50671 496.22275,402.57471 C 495.94273,402.85873 492.90251,416.65974 493.10252,416.83976 C 493.54256,417.29979 497.06281,417.59181 502.78323,417.63582 C 506.10348,417.66382 508.86368,417.63982 508.86368,417.57981 L 508.86368,417.57981 z"
       id="path2820"
       style="fill:#000000" />
    <path
       d="M 661.79488,692.90798 C 660.15476,692.38794 659.47471,691.34786 658.43463,688.10763 C 657.9946,686.66752 656.95453,684.42736 656.07446,683.10726 C 655.2344,681.78716 654.31433,680.14704 654.03431,679.507 C 653.19425,677.50685 653.39426,666.18602 654.39434,658.70547 C 655.67443,649.22478 655.95445,645.99654 656.87452,631.7035 C 657.87459,615.4063 658.27462,610.74596 659.47471,600.50121 C 661.03482,587.35625 661.39485,579.51567 661.15483,566.49872 C 660.55479,537.36859 659.3147,528.51594 652.19418,503.15008 L 649.51398,493.60538 L 648.75392,494.54945 C 646.27374,497.54967 644.87364,502.16201 637.4731,531.49616 C 634.55288,543.15701 630.27257,559.3582 627.9524,567.49879 C 622.71202,585.80813 619.63179,597.46899 612.71128,625.10301 C 609.75107,636.98388 606.51083,649.38479 605.51076,652.70503 C 604.55069,655.98527 603.07058,661.30566 602.27052,664.5059 C 601.51046,667.70613 600.47039,671.46641 599.99035,672.90651 C 598.23022,678.34691 595.43002,682.78724 592.70982,684.46736 C 591.66974,685.14741 591.26971,685.74745 590.90969,687.22756 C 590.26964,689.90776 589.26957,692.02791 588.50951,692.30793 C 587.10941,692.86798 579.38884,693.02799 577.34869,692.50795 C 574.7085,691.90791 573.54842,690.54781 572.42833,686.78753 C 571.9883,685.18741 571.06823,682.62723 570.38818,681.10711 C 568.98808,677.86688 568.86807,675.4667 569.82814,671.90644 C 570.18817,670.58634 570.66821,666.78607 570.86822,663.50582 C 571.22825,656.82534 571.9083,653.38508 575.82858,638.02396 C 577.22869,632.45955 579.66886,621.87078 581.26898,614.50224 C 582.8291,607.1297 585.46929,595.86887 587.06941,589.4764 C 588.70953,583.07993 590.66967,574.35129 591.46973,570.07498 C 593.30986,559.92624 594.50995,555.39391 596.71011,549.73749 C 599.67033,542.28495 599.71033,542.90499 594.54995,527.27585 C 585.82932,500.90592 585.98933,501.42995 585.98933,497.89369 C 585.98933,496.04956 586.22935,494.01341 586.54937,493.09334 C 587.10941,491.58923 587.10941,491.40922 586.26935,490.09312 C 584.02918,486.50886 583.98918,484.79273 585.90932,474.45998 C 586.66938,470.18767 587.70945,464.61926 588.14949,462.09107 C 589.18956,456.48266 589.30957,449.27013 588.54951,437.8893 C 588.10948,431.44083 588.10948,425.6164 588.42951,407.8871 C 588.66952,395.78622 589.06955,382.82527 589.26957,379.08499 C 589.46958,375.34472 589.82961,368.50422 590.06963,363.88388 C 591.0697,344.07443 592.18978,338.54602 595.67004,336.22585 C 596.5101,335.67381 599.59032,334.23771 602.47053,333.03362 C 610.27111,329.80138 609.79107,330.27742 609.59106,325.70108 C 609.43104,322.35684 609.11102,320.98474 606.95086,314.68028 C 604.19066,306.41967 603.51061,302.7034 604.07065,298.34708 C 604.55069,294.45479 605.47075,292.12662 607.99094,288.40235 C 610.43112,284.76528 612.11124,281.47824 613.07131,278.47682 C 614.07138,275.28099 618.11168,266.98318 619.95182,264.23818 C 623.19205,259.50303 627.19235,256.64802 632.0327,255.64035 C 633.23279,255.39233 636.03299,255.26952 638.23315,255.36753 C 643.99358,255.62115 646.27374,256.57722 649.87401,260.23749 C 652.59421,263.00569 653.8743,264.91263 658.51464,273.41525 C 659.95475,276.07905 661.27484,277.93678 662.63494,279.15327 C 666.87525,282.94555 667.4753,285.06571 665.19513,287.83031 C 664.23506,289.01039 663.95504,289.75445 663.95504,291.02654 C 663.95504,293.40272 664.55508,294.22278 667.87533,296.47894 C 669.51545,297.58302 671.03556,298.83511 671.27557,299.25915 C 671.55559,299.75918 671.5956,302.49538 671.43559,306.95571 C 671.19557,314.50426 671.6356,318.24054 673.27572,322.59685 C 674.3958,325.60108 675.07585,326.18512 678.67612,327.23319 C 680.55625,327.76923 682.19637,328.55729 683.03644,329.30135 C 685.67663,331.60952 688.35683,339.99013 691.47705,355.48326 C 692.43712,360.32362 693.95724,367.17612 694.8373,370.70838 C 695.67736,374.24464 696.59743,378.92498 696.87745,381.10914 C 697.71751,388.56969 698.47757,391.73392 700.47771,396.28625 C 705.23806,407.18705 708.67831,421.96013 709.15835,433.68899 C 709.39837,439.76544 708.71832,446.90996 707.43822,451.89033 C 706.03812,457.31472 703.19791,461.37902 700.3577,461.96306 C 699.63765,462.11507 698.9976,462.64711 698.59758,463.44317 C 698.23755,464.13122 697.19747,465.67934 696.27741,466.89142 C 695.31734,468.09951 694.43727,469.45561 694.31726,469.90364 C 694.19725,470.34768 693.99724,478.8083 693.87723,488.70502 C 693.79722,498.59775 693.5172,511.6427 693.27719,517.69514 C 693.07717,523.74359 692.71714,540.66483 692.51713,555.2979 C 692.1571,578.5716 691.95709,584 690.87701,598.70108 C 688.23682,635.21175 687.07673,647.10462 684.27653,665.62598 C 682.07637,680.22705 680.43625,685.50744 677.39602,688.10763 C 676.39595,688.94769 675.6759,690.02777 675.51588,690.78782 C 675.35587,691.46787 674.95584,692.26793 674.63582,692.54795 C 673.87576,693.188 663.63501,693.46802 661.79488,692.90798 L 661.79488,692.90798 z"
       id="path2818"
       style="fill:#442178" />
    <path
       d="M 604.07065,494.50545 C 604.07065,492.34929 604.83071,486.37685 606.1108,478.49227 C 606.75085,474.59999 607.19088,473.06788 608.11095,471.58377 C 609.51105,469.3196 609.51105,469.2916 608.47097,469.2916 C 607.4309,469.2916 607.4309,468.74756 608.67099,460.49095 C 609.23103,456.85869 610.03109,448.67009 610.47112,442.28962 C 611.39119,428.85664 612.19125,421.42409 613.31133,414.6876 C 614.39141,408.57515 614.15139,405.46692 612.23125,398.88644 C 611.43119,396.13424 610.51112,392.76199 610.1511,391.38589 C 609.79107,390.00979 609.39104,388.88571 609.27103,388.88571 C 609.11102,388.88571 608.871,391.98994 608.71099,395.78622 C 608.23096,407.8951 606.91086,428.75663 605.87078,439.48942 C 604.91071,449.83417 604.31067,459.81491 603.67062,475.09202 C 603.51061,479.49235 603.15058,483.90067 602.95057,484.89274 C 602.35053,487.31292 601.63047,491.99726 601.59047,493.56938 C 601.55047,494.46544 601.83049,495.08949 602.51054,495.65753 C 603.03058,496.10156 603.59062,496.47359 603.79063,496.47759 C 603.95064,496.48559 604.07065,495.59753 604.07065,494.50545 L 604.07065,494.50545 z"
       id="path2816"
       style="fill:#442178" />
    <path
       d="M 659.95475,460.89498 L 664.8351,460.37895 L 664.31506,459.33487 C 664.07505,458.75883 660.43478,451.14627 656.23447,442.41363 C 650.99409,431.38482 648.59391,426.74448 648.3939,427.21252 C 648.03387,428.08458 640.47332,460.62696 640.47332,461.34702 C 640.47332,461.79505 641.75341,461.84705 647.79385,461.65104 C 651.79415,461.51903 657.27455,461.17901 659.95475,460.89498 L 659.95475,460.89498 z"
       id="path2814"
       style="fill:#ffffff" />
    <path
       d="M 694.8773,438.83337 C 695.67736,435.56113 694.07724,429.92072 689.55691,419.88798 C 688.43683,417.33579 687.07673,413.21549 685.87664,408.50315 C 684.87657,404.43885 683.63648,400.21054 683.23645,399.10246 C 681.43632,394.55413 678.95614,386.88556 678.27609,383.88534 C 677.91606,382.12522 677.23601,380.01706 676.83598,379.201 C 676.43595,378.38494 676.07593,377.42487 676.07593,377.07285 C 676.07593,376.63681 675.79591,376.4688 675.19586,376.55681 C 674.15579,376.71282 673.87576,377.59288 673.31572,383.2853 C 673.07571,385.59347 672.71568,388.7097 672.51567,390.20581 C 672.11564,393.20203 672.55567,397.76636 673.47574,400.13453 C 673.79576,400.92659 675.47588,404.61886 677.23601,408.33513 C 680.47625,415.17564 684.71656,425.77241 687.91679,434.88908 C 688.87686,437.63728 690.07695,440.74951 690.55699,441.79759 L 691.43705,443.70973 L 692.91716,442.24162 C 693.95724,441.22954 694.55728,440.17747 694.8773,438.83337 L 694.8773,438.83337 z"
       id="path2812"
       style="fill:#442178" />
    <path
       d="M 647.55384,382.15722 C 648.51391,378.78497 649.67399,375.0287 650.11402,373.80461 C 650.51405,372.58052 651.23411,369.22027 651.71414,366.33206 C 652.15417,363.44385 653.07424,359.19154 653.75429,356.88337 C 654.79437,353.17109 654.95438,351.70699 655.31441,344.28244 C 655.59443,338.262 655.55442,334.80175 655.2344,332.08155 C 654.55435,326.53314 654.59435,326.55715 652.4742,329.17734 C 650.15403,332.08555 648.75392,332.7496 643.47354,333.49365 C 635.95299,334.54573 631.27264,333.30964 626.91232,329.14133 L 624.79217,327.08118 L 625.03219,329.28134 C 625.1922,330.48943 625.47222,334.44972 625.67223,338.08199 C 625.87225,341.71025 626.5123,348.82278 627.07234,353.88315 C 627.63238,358.94352 628.19242,364.1639 628.35243,365.484 C 628.51244,367.34813 629.11249,368.90425 630.99262,372.48451 C 633.3928,377.09285 640.59333,388.93771 643.27352,392.67399 L 644.67363,394.66213 L 645.19366,391.4739 C 645.51369,389.72177 646.55376,385.52546 647.55384,382.15722 L 647.55384,382.15722 z"
       id="path2810"
       style="fill:#ffffff" />
    <path
       d="M 81.832401,692.38794 C 77.990119,691.38787 73.327378,688.54766 70.391163,685.42743 C 69.599105,684.58737 67.834975,682.2672 66.470876,680.26705 C 64.086701,676.7868 63.970292,676.50678 63.461055,672.86651 C 63.170234,670.78636 62.626994,668.46619 62.254567,667.74614 C 61.881739,667.02608 59.944798,664.62591 57.950251,662.38574 C 53.375116,657.30537 53.076694,656.58532 53.333913,651.70496 C 53.496005,648.62473 53.885794,646.8246 55.407585,642.11626 L 57.281802,636.32783 L 56.604353,632.91558 C 55.875419,629.24332 55.911462,626.82314 56.877213,614.60224 C 57.482217,606.94568 57.154593,601.41728 55.246093,587.10023 C 52.255914,564.66659 50.712161,555.42591 47.793548,542.49696 C 46.309039,535.92048 42.923991,523.07154 42.428755,522.13547 C 42.242341,521.78344 41.6779,522.96353 40.896642,525.3357 C 37.898423,534.44437 35.756266,543.88506 32.236408,563.4985 C 29.131781,580.79577 27.434456,589.27239 25.585121,596.70093 C 22.541698,608.92583 11.172065,648.34471 9.3719333,652.90505 C 7.2757798,658.22544 4.0435431,663.90585 1.5113576,666.74606 C -0.18876694,668.6262 -0.25677192,668.82621 -0.49278921,671.94644 C -1.5328654,685.70745 -14.261798,694.74811 -25.266604,689.54773 C -26.490693,688.94769 -27.718783,688.22764 -27.994804,687.86761 C -28.270824,687.54759 -28.582847,685.94747 -28.686854,684.34735 C -28.998877,679.46699 -28.062809,676.34677 -23.566479,667.46611 C -18.726125,657.90541 -18.014073,655.34523 -18.714124,650.06484 C -19.702196,642.6563 -19.47818,640.43213 -15.329876,616.7024 C -10.1935,587.32024 -7.8853307,571.99912 -6.4052223,557.46206 C -5.9931921,553.43776 -5.5891625,551.91365 -3.1409832,545.09715 C -1.2128419,539.73276 -1.1288358,534.45237 -2.7409539,520.23933 C -4.1050538,508.23045 -4.2490643,503.35409 -3.4010022,497.70968 C -2.7609553,493.44937 -2.8289603,493.17735 -5.1811326,490.69317 C -8.1853526,487.52093 -8.7733957,486.27684 -8.7693954,483.13661 C -8.7653951,481.5725 -8.3933679,478.58028 -7.9453351,476.49213 C -5.6611678,465.89535 -5.1491303,462.66711 -4.1890599,452.8904 C -3.1209817,442.0576 -1.6128712,430.63677 -0.612798,425.87242 C 0.031249175,422.80419 -0.31277602,422.9042 -1.4968628,426.12444 C -2.6529474,429.27667 -3.4050025,433.19696 -4.5690878,442.12961 C -5.1251285,446.39792 -5.7691757,450.97026 -5.9971924,452.29035 C -6.4772275,455.02655 -7.985338,460.89098 -8.2133547,460.89098 C -8.2933606,460.89098 -9.2374297,460.35094 -10.305508,459.6949 C -13.189719,457.91877 -15.197866,457.33872 -18.870135,457.22272 C -21.898357,457.12671 -22.474399,457.24272 -25.742639,458.59482 C -27.702782,459.40688 -29.750932,460.48295 -30.290972,460.98299 L -31.279044,461.89106 L -31.011025,456.09063 C -30.630997,447.87403 -29.282898,433.24496 -28.566845,429.61669 C -28.234821,427.92457 -27.434763,424.82434 -26.786715,422.72419 C -25.102592,417.24779 -24.306533,413.06348 -24.626557,411.35136 C -24.774568,410.5433 -25.318608,408.63916 -25.834645,407.11505 C -27.162743,403.19876 -27.058735,402.13468 -24.874575,397.51034 L -22.974436,393.48605 L -22.974436,388.48568 C -22.974436,385.73348 -23.210453,380.6051 -23.502475,377.08485 C -24.206526,368.51622 -23.866501,366.71609 -19.474179,355.61527 C -15.625898,345.89856 -15.505889,345.49853 -12.821692,333.28164 C -11.737613,328.32927 -10.665534,323.81694 -10.445518,323.2529 C -9.8614754,321.74079 -5.5091566,320.18868 5.6276591,317.52048 C 23.852194,313.15616 24.163017,313.04416 28.268117,309.18387 C 30.530283,307.05972 33.017665,305.27959 33.727317,305.27959 C 33.803723,305.27959 33.791322,306.97971 33.700515,309.05986 C 33.4865,313.95222 34.111745,319.1006 35.911877,327.2812 C 36.711136,330.90946 37.357983,334.32971 37.349983,334.88175 C 37.32038,336.8739 39.188517,350.35489 39.899769,353.2831 L 40.629423,356.28332 L 40.829437,347.87071 L 41.029452,339.46209 L 42.929591,336.7979 C 43.974468,335.33379 44.82973,333.95769 44.82973,333.74167 C 44.82973,333.52566 44.219686,332.96961 43.474431,332.50958 C 40.962247,330.95747 40.965447,330.92146 44.051673,326.93717 C 45.607387,324.92503 47.055493,323.28091 47.269109,323.28091 C 48.10437,323.28091 46.530655,321.29676 42.033926,316.68042 C 34.71979,309.17187 34.04454,307.51175 35.071816,299.59517 C 35.857873,293.54273 35.735864,292.38264 33.805723,287.55029 C 32.457224,284.17164 32.134401,283.676 31.140328,283.45759 C 28.252916,282.82354 26.111159,279.18808 25.740732,274.29212 C 25.44231,270.34543 25.913945,269.49697 28.230515,269.81419 L 29.951841,270.05021 L 29.734625,265.33266 C 29.26179,255.07271 32.633237,248.20781 39.960974,244.50874 C 44.854132,242.03855 49.694887,241.50972 54.996075,242.86542 C 59.206783,243.94225 61.74937,245.38652 64.861598,248.46903 C 69.311924,252.87735 70.687224,256.89404 70.317597,264.40299 L 70.094381,268.93172 L 71.86331,269.68978 L 73.63184,270.44784 L 73.63184,273.04243 C 73.63184,279.05407 71.833308,282.36511 68.079433,283.26557 L 66.154092,283.72761 L 65.243226,287.60229 C 63.950331,293.10269 63.681111,300.70725 64.646782,304.43152 L 65.368035,307.21173 L 63.199476,310.67198 C 60.669291,314.70428 56.549389,319.32462 53.15114,321.94081 C 51.832643,322.95688 50.905895,323.89695 51.091909,324.03296 C 51.600706,324.40499 55.042918,328.95332 55.565837,329.94539 C 55.960786,330.69745 55.831496,331.04147 54.615807,332.49758 C 52.930964,334.51373 52.908242,334.34572 55.550116,339.48209 C 56.002789,340.36216 56.553869,341.53024 56.774805,342.08228 L 57.176235,343.08236 L 57.203437,341.95827 C 57.239839,340.44616 59.15558,334.86175 61.582557,329.19334 C 63.977533,323.60093 65.764464,318.07252 66.405311,314.28025 C 67.139364,309.93193 67.21337,309.67991 67.749809,309.67991 C 68.02703,309.67991 69.173513,310.72399 70.298396,312.00408 C 72.176533,314.13624 72.616566,314.41226 75.687991,315.37233 C 77.527325,315.94837 80.022308,316.78443 81.232397,317.22846 C 82.442485,317.67649 85.952742,318.78058 89.032968,319.68064 C 96.506315,321.8728 100.78263,323.96496 103.65484,326.83717 C 106.49505,329.67737 107.2271,331.58551 108.5992,339.77411 C 112.07146,360.47163 112.59149,375.65274 111.20339,416.28772 C 110.74336,429.84871 110.95137,440.96152 111.89144,452.69038 C 112.86751,464.86328 112.6755,475.02002 111.38741,479.39234 C 111.06738,480.48042 110.43534,480.2164 110.42734,478.99231 C 110.41933,477.4682 109.9993,476.94416 108.40719,476.46813 C 106.40704,475.86808 97.750407,475.25204 95.506242,475.54806 C 92.843647,475.90008 92.285606,476.55613 92.60443,478.96031 L 92.860048,480.88845 L 91.746367,480.41641 C 89.315389,479.38434 89.424197,480.1724 89.531005,464.37524 L 89.629412,449.89018 L 88.484528,451.13427 C 86.889611,452.8704 86.654394,455.03456 87.483255,460.33094 C 88.024894,463.7912 88.170505,467.54347 88.188906,478.49227 C 88.212908,492.68531 87.866083,496.90162 86.275566,501.76998 C 85.965943,502.71805 85.594716,505.83428 85.450706,508.69449 C 85.306295,511.5547 84.667048,522.80352 84.029802,533.69632 C 81.190394,582.21987 80.681156,600.50921 81.858043,611.70203 C 82.193667,614.89026 82.610498,621.19073 82.78411,625.70306 C 83.082932,633.45562 83.162138,634.04367 84.226616,636.50385 C 84.845861,637.93195 85.3707,639.82009 85.392701,640.70015 C 85.430304,642.20026 85.303095,642.38028 83.284547,643.73638 C 82.103261,644.52443 80.977978,645.4565 80.784364,645.80453 C 80.356733,646.56858 81.199194,651.22493 82.426484,654.90519 C 82.905319,656.3453 85.061477,661.18565 87.218035,665.70599 C 91.555153,674.78665 92.522024,677.42684 93.42209,682.66723 C 94.186146,687.10755 94.182145,687.66759 93.398088,689.26771 C 92.044389,691.98791 86.292367,693.50802 81.832441,692.38794 L 81.832401,692.38794 z"
       id="path2808"
       style="fill:#000000" />
    <path
       d="M 88.37648,440.28948 C 87.447212,430.42875 85.249451,416.65974 84.393788,415.32765 C 83.799745,414.40358 84.246177,425.15637 85.036635,430.80478 C 85.745087,435.86915 88.094059,444.62979 88.585695,444.04575 C 88.657301,443.95774 88.563294,442.26962 88.37648,440.28948 L 88.37648,440.28948 z"
       id="path2806"
       style="fill:#000000" />
    <path
       d="M 56.70776,343.79041 C 56.606353,343.39838 56.516706,343.62239 56.508546,344.28244 C 56.500385,344.94249 56.583391,345.25851 56.692959,344.9905 C 56.802527,344.71848 56.809208,344.17844 56.70776,343.79041 L 56.70776,343.79041 z"
       id="path2804"
       style="fill:#000000" />
    <path
       d="M 166.23978,687.42758 C 164.15163,686.98754 161.35543,685.94747 160.41536,685.30742 C 159.49129,684.62737 159.31928,684.10733 158.87924,680.62708 C 158.2672,675.82673 158.63123,673.86658 160.81939,670.22632 C 162.98754,666.62605 163.07555,665.58598 161.68745,659.90556 C 161.0434,657.26537 160.30735,653.10506 160.05533,650.70489 C 159.48729,645.26849 158.89525,642.91632 156.59108,636.97188 C 153.45485,628.86729 153.23083,627.48719 152.8188,613.50216 C 152.61879,606.68166 152.31476,600.3812 152.13875,599.50114 L 151.82273,597.90102 L 129.12906,597.79701 L 106.4354,597.693 L 106.4354,554.29383 L 106.4354,510.89465 L 120.18841,510.89465 L 133.94142,510.89465 L 134.41745,509.73856 C 134.68147,509.10252 136.12958,506.47432 137.63369,503.89813 C 141.05394,498.04971 141.858,495.32551 141.44597,491.01319 C 141.04194,486.77688 141.04194,487.21691 141.40196,458.49081 C 141.62998,440.29348 141.58198,430.19674 141.23795,422.8882 C 140.4859,406.88303 140.28588,384.91742 140.81392,375.68474 C 141.35396,366.19605 141.69399,362.49978 143.05008,351.42697 C 145.09823,334.69374 146.64235,329.84939 151.33069,325.42106 C 154.25891,322.65286 157.35513,321.03674 166.87183,317.30047 C 175.17244,314.04423 178.82871,312.15609 181.38889,309.79592 L 182.78499,308.51182 L 183.61306,310.21995 C 184.06909,311.16002 185.80922,313.98822 187.48534,316.50441 C 191.0216,321.8248 194.64186,329.09333 197.8301,337.28193 C 203.23049,351.13895 204.58259,354.47519 204.7466,354.31118 C 204.84261,354.21517 204.79061,349.28281 204.63059,343.35038 L 204.33457,332.56559 L 202.49044,331.15348 C 201.47436,330.38143 200.23827,329.31735 199.75024,328.79731 L 198.85817,327.84524 L 202.17041,324.553 L 205.47866,321.25676 L 207.26279,321.8848 C 210.98706,323.1969 213.54325,327.02518 212.45117,329.65737 C 212.06714,330.58944 212.47517,332.33357 215.40338,342.3103 C 219.7717,357.19139 220.94379,362.96781 222.86393,379.08499 C 223.73199,386.34552 224.88808,394.98616 225.44012,398.2864 C 227.19225,408.81117 228.44434,417.75182 228.44434,419.77597 C 228.44434,421.58811 228.51634,421.73212 229.34441,421.61611 C 230.22047,421.4921 230.24847,421.34009 230.36048,416.0877 C 230.42448,413.11548 230.19247,405.37492 229.84044,398.88644 C 229.48842,392.39397 229.04038,381.77319 228.84837,375.28071 L 228.49634,363.47585 L 226.4962,355.67928 C 222.00387,338.14999 218.84364,328.88932 215.44739,323.29291 C 214.2313,321.28076 213.20722,319.0526 213.03921,318.04052 L 212.74319,316.28039 L 214.94735,318.36054 C 216.65948,319.97666 218.70363,321.19275 224.09602,323.81694 C 234.7128,328.98132 236.36892,330.45743 237.69702,335.96583 C 238.42907,339.00206 238.21706,348.33874 237.21698,357.08338 C 235.74087,369.97633 236.0689,380.90913 238.26506,391.94593 C 239.63716,398.83844 240.59723,401.27862 246.88169,413.88754 C 253.48617,427.13651 254.11422,429.08065 254.15822,436.4892 C 254.21823,445.62587 251.57803,451.47029 245.50159,455.6506 C 244.10149,456.61467 243.68546,457.17471 243.47744,458.3788 C 242.64538,463.17115 239.81717,468.09151 237.88903,468.09151 C 237.39699,468.09151 236.47693,467.55147 235.84488,466.89142 C 234.39277,465.37531 233.82473,465.37931 233.02867,466.91943 C 231.9566,468.99158 231.88059,472.97987 232.80466,478.49227 C 233.87674,484.90074 233.85674,486.56086 232.67265,490.37314 C 230.95252,495.89755 230.72451,499.3658 230.6245,521.49542 C 230.47649,554.17782 229.86044,565.22663 227.42826,578.89963 C 225.2441,591.18053 225.30411,595.71686 227.8443,610.90197 C 230.16447,624.79099 230.49649,628.06323 230.50049,637.10389 C 230.50449,652.225 231.33655,656.98535 234.60479,660.3856 C 236.0609,661.94571 236.66894,662.22573 240.04519,663.1058 C 245.28957,664.5059 249.08985,666.38604 251.47403,668.78621 C 253.75819,671.06638 255.50232,674.0666 255.11829,675.06667 C 254.74627,676.02674 251.186,677.54685 247.54574,678.26691 C 236.40892,680.54707 221.32382,678.58693 216.83149,674.30662 C 215.85142,673.34655 215.77141,673.34655 213.87127,673.90659 C 211.11907,674.74665 206.55874,674.66664 201.59037,673.66657 C 199.2502,673.18653 197.15005,672.7065 196.92203,672.54649 C 196.65001,672.38648 196.62601,671.66642 196.85003,670.46633 C 197.61008,666.42604 198.12612,656.50531 197.8701,650.9049 C 197.48207,642.42428 196.67401,635.56778 194.24183,620.10265 C 193.04575,612.51009 191.92966,605.12955 191.75365,603.70144 L 191.44163,601.10125 L 187.64135,601.10125 L 183.84107,601.10125 L 183.96108,602.50136 C 184.02909,603.26941 184.70514,607.40972 185.46119,611.70203 C 189.35748,633.77565 189.97752,642.83631 188.19339,651.70496 C 187.57335,654.78519 185.91722,658.82548 184.38911,660.98564 C 183.54505,662.14573 183.53705,662.26573 184.1811,664.26588 C 185.04116,667.02608 185.00516,669.74628 184.03309,675.06667 C 183.59705,677.46685 183.24103,680.18705 183.24103,681.14712 C 183.24103,682.54722 183.02501,683.02725 181.83293,684.06733 C 179.94079,685.70745 178.54868,686.3875 175.56047,687.10755 C 173.22029,687.66759 168.08792,687.82761 166.23978,687.42758 L 166.23978,687.42758 z"
       id="path2802"
       style="fill:#000000" />
    <path
       d="M 149.55456,509.39454 C 149.65857,506.42632 149.59456,506.0943 148.94252,506.0943 C 148.54249,506.0943 147.85044,505.83828 147.4024,505.52225 C 146.87036,505.15023 146.38633,505.07822 146.0143,505.31824 C 144.97023,505.97829 143.70613,505.71027 142.87407,504.64619 C 141.958,503.4861 140.83792,503.59011 140.83792,504.8422 C 140.83792,505.26623 140.38989,506.57833 139.84185,507.75442 C 138.93378,509.69856 138.53775,512.06273 139.03379,512.55477 C 139.1418,512.66278 141.52597,512.73878 144.33418,512.72278 L 149.43855,512.69478 L 149.55456,509.39454 L 149.55456,509.39454 z"
       id="path2800"
       style="fill:#000000" />
    <path
       d="M 91.434304,511.00665 C 89.972597,510.65063 89.234143,509.64656 89.234143,508.01444 C 89.234143,506.05829 90.279019,504.95021 93.683269,503.30209 C 97.899578,501.25794 99.243676,499.44181 99.227675,495.80554 C 99.215674,493.73339 98.419616,491.68924 96.203453,488.04097 L 94.783349,485.7048 L 95.831426,484.3327 C 96.407468,483.57665 97.11152,482.87259 97.395541,482.76059 C 97.991584,482.53257 105.76815,483.10461 107.24426,483.48864 C 108.77237,483.88067 111.23655,490.01312 111.23655,493.41337 C 111.23655,502.19001 105.82016,508.9105 97.287533,510.71863 C 94.619337,511.28268 92.915612,511.36668 91.434304,511.00665 L 91.434304,511.00665 z"
       id="path2798"
       style="fill:#000000" />
    <path
       d="M -22.438037,497.9337 C -25.822284,496.72561 -30.40262,493.26536 -31.90273,490.78117 C -32.330761,490.07312 -33.250829,487.1089 -33.95088,484.19669 C -35.410987,478.09224 -35.330981,477.30419 -32.958807,474.06795 C -32.146748,472.95987 -31.258683,471.29575 -30.986663,470.37168 C -30.554631,468.89957 -30.206606,468.54354 -28.162456,467.49147 C -26.002298,466.37939 -25.522262,466.29138 -21.601975,466.29938 C -17.98171,466.30338 -17.129648,466.43539 -15.65354,467.21545 C -13.569387,468.31953 -13.325369,468.84757 -14.15743,470.45568 C -14.509456,471.13573 -15.077497,473.53591 -15.425523,475.79208 C -16.377593,482.02053 -17.353664,485.03275 -18.805771,486.25684 C -19.48182,486.82488 -20.185872,487.29292 -20.365885,487.29292 C -20.753913,487.29292 -21.974003,483.89267 -21.974003,482.81659 C -21.974003,482.40856 -21.453965,481.76451 -20.813918,481.37648 C -19.769841,480.73644 -19.709837,480.59643 -20.213874,479.90438 C -20.521896,479.48435 -20.773915,478.36426 -20.773915,477.41619 C -20.773915,476.46813 -20.929926,475.69207 -21.12194,475.69207 C -21.793989,475.69207 -23.598122,477.38019 -24.230168,478.60028 C -25.458258,480.97246 -24.80221,483.55664 -21.149942,490.76517 C -19.233802,494.54945 -17.969709,497.50167 -18.10972,497.86569 C -18.405741,498.63775 -20.385886,498.66575 -22.438037,497.9337 L -22.438037,497.9337 z"
       id="path2796"
       style="fill:#000000" />
    <path
       d="M 333.19601,322.83287 C 322.78325,310.52397 322.37522,309.99193 322.66724,309.11587 C 323.5073,306.59968 323.33529,305.09957 321.98319,303.07142 C 320.22306,300.43923 319.367,300.44323 318.0509,303.08743 C 317.49886,304.19151 316.83081,305.69962 316.56279,306.44367 C 316.09876,307.73577 316.03475,307.76777 315.16269,307.19973 C 314.66265,306.8717 313.69058,305.72362 313.00653,304.64354 C 311.61443,302.44338 310.07832,300.68725 309.33026,300.43923 C 308.94624,300.31122 309.01824,298.90312 309.65829,294.10677 C 312.89452,269.85539 319.71902,257.51249 332.02393,253.65981 C 337.69234,251.88648 346.53699,252.2749 351.12532,254.50027 C 359.18592,258.40655 363.26621,270.89387 362.06213,287.95032 C 361.48608,296.09891 360.61402,301.63132 359.75396,302.61139 C 359.36593,303.05142 356.53372,305.07157 353.4535,307.10372 L 347.85309,310.80399 L 343.17274,318.54056 C 340.60055,322.79687 338.24838,326.61715 337.94036,327.03318 C 337.42432,327.72923 337.0883,327.43321 333.19601,322.83287 L 333.19601,322.83287 z"
       id="path2794"
       style="fill:#442178" />
    <path
       d="M 201.84239,318.03652 C 200.08226,316.70442 197.02204,314.52826 195.04189,313.20417 C 190.89759,310.42796 186.73328,307.10772 185.10116,305.27559 C 184.48112,304.57954 183.65306,303.07943 183.26103,301.94334 C 182.865,300.80726 181.5449,297.89905 180.32481,295.47887 C 177.60062,290.07847 177.24059,288.79038 177.25259,284.47726 C 177.26059,280.56658 177.91664,278.62603 181.05687,273.21324 C 186.46926,263.89296 190.57357,259.21741 195.43392,256.84084 C 197.98211,255.59275 198.53415,255.47514 201.83439,255.47794 C 204.82661,255.47994 205.87069,255.65995 207.95484,256.53602 C 213.82727,259.0046 218.86364,263.23171 222.4199,268.67691 C 225.03209,272.6796 226.10417,275.59381 226.34419,279.32409 C 226.5362,282.2927 226.4802,282.51992 224.25603,288.12633 C 221.0558,296.17892 217.0155,303.39545 212.37916,309.33588 C 211.5031,310.45997 211.24308,311.22002 211.24308,312.65213 C 211.24308,313.7002 210.90305,315.17231 210.47102,316.02437 C 209.55096,317.82451 206.72275,320.4847 205.73868,320.4687 C 205.35465,320.4647 203.60252,319.36862 201.84239,318.03652 L 201.84239,318.03652 z"
       id="path2792"
       style="fill:#000000" />
    <path
       d="M 496.41997,298.55909 C 488.37938,291.93461 487.77933,291.31856 486.45924,288.07433 C 485.69918,286.18379 485.29915,284.68808 485.41916,283.93642 C 485.69918,282.2807 485.01913,274.87656 484.01906,268.05806 C 482.33894,256.57762 482.97898,248.69184 486.13921,242.82021 C 489.21944,236.98578 496.13995,233.52513 504.66057,233.55393 C 511.06104,233.57513 515.86139,235.52248 518.86161,239.32956 C 521.30179,242.42618 521.82183,244.69795 521.54181,251.65526 C 521.30179,258.23134 520.74175,260.92634 516.94147,274.27652 C 515.62137,278.89685 514.22127,284.29725 513.82124,286.27739 L 513.10119,289.87846 L 509.50093,293.93076 C 506.4607,297.323 501.30032,302.13136 500.82029,302.05935 C 500.74028,302.04735 498.78014,300.47123 496.41997,298.55909 L 496.41997,298.55909 z"
       id="path6304"
       style="fill:#000000" />
  </g>
</svg>
